<svg id="Calque_1" data-name="Calque 1" xmlns="http://www.w3.org/2000/svg" viewBox="0 0 779.27 248.6"><defs><style>.cls-1{fill:#f45e43;}.cls-2{fill:#f63a4d;}</style></defs><title>Logo_mjml_2</title><g id="V7"><g id="Group-Copy-13"><path id="mjml-copy-6" class="cls-1" d="M268,258a4.84,4.84,0,0,0,4.67,4.68h19.93a4.84,4.84,0,0,0,4.67-4.68V203.9c2.46-6.65,8.37-15.51,20.67-15.51,12.55,0,18.21,8.12,18.21,20.92V258a4.67,4.67,0,0,0,4.67,4.68h18.45A4.84,4.84,0,0,0,364,258v-50c0-4.43-.25-9.35-0.25-9.35a24.76,24.76,0,0,1,20.67-10.34c12.3,0,18.45,8.12,18.45,20.92V258a4.67,4.67,0,0,0,4.67,4.68h19.93a4.67,4.67,0,0,0,4.67-4.68V211c0-25.84-11.56-49.23-43.06-49.23-17.71,0-30.51,10.83-34.69,15.26-8.12-9.85-18-15.26-32-15.26a44.82,44.82,0,0,0-33,14.52L286,167a4.18,4.18,0,0,0-4.18-2.71h-9.1a4.67,4.67,0,0,0-4.67,4.68V258ZM459.69,289.3c0,14.28-6.15,22.4-17.22,22.4-5.41,0-11.32-3-14.52-4.92-2.21-1.23-4.92-.74-5.9,1.23l-8.12,15.75a4.52,4.52,0,0,0,1,5.66c4.18,3.94,16,9.6,29,9.6,26.08,0,45.76-17.23,45.76-49.72V168.94a4.67,4.67,0,0,0-4.67-4.68H464.37a4.67,4.67,0,0,0-4.67,4.68V289.3ZM519.23,258a4.84,4.84,0,0,0,4.67,4.68h19.93a4.84,4.84,0,0,0,4.67-4.68V203.9c2.46-6.65,8.37-15.51,20.67-15.51,12.55,0,18.21,8.12,18.21,20.92V258a4.67,4.67,0,0,0,4.67,4.68h18.45a4.84,4.84,0,0,0,4.67-4.68v-50c0-4.43-.25-9.35-0.25-9.35a24.76,24.76,0,0,1,20.67-10.34c12.3,0,18.45,8.12,18.45,20.92V258a4.67,4.67,0,0,0,4.67,4.68h19.93a4.67,4.67,0,0,0,4.67-4.68V211c0-25.84-11.56-49.23-43.06-49.23-17.71,0-30.51,10.83-34.69,15.26-8.12-9.85-18-15.26-32-15.26a44.82,44.82,0,0,0-33,14.52L537.19,167a4.18,4.18,0,0,0-4.18-2.71h-9.1a4.67,4.67,0,0,0-4.67,4.68V258Zm191.66,0a4.84,4.84,0,0,0,4.67,4.68h20.67a4.84,4.84,0,0,0,4.67-4.68V95.1a4.84,4.84,0,0,0-4.67-4.68H715.57a4.84,4.84,0,0,0-4.67,4.68V258Z" transform="translate(-19.92 -90.43)"/><circle id="Oval-38-Copy-9" class="cls-1" cx="176.38" cy="58.35" r="20.55"/><path id="Path-Copy" class="cls-1" d="M473.86,145.08a17.12,17.12,0,1,0,0-34.24,17.12,17.12,0,0,0,0,34.24h0Z" transform="translate(-19.92 -90.43)"/><path id="Path-Copy-5" class="cls-1" d="M781.82,257.09a17.12,17.12,0,1,0,0-34.24,17.12,17.12,0,0,0,0,34.24h0Z" transform="translate(-19.92 -90.43)"/></g></g><rect class="cls-1" y="37.92" width="135.9" height="40.99" rx="20.5" ry="20.5"/><circle id="Oval-38-Copy-9-2" data-name="Oval-38-Copy-9" class="cls-2" cx="20.55" cy="123.44" r="20.55"/><rect class="cls-1" x="80.94" y="193.44" width="135.9" height="40.99" rx="20.5" ry="20.5" transform="translate(277.87 337.44) rotate(180)"/><circle id="Oval-38-Copy-9-3" data-name="Oval-38-Copy-9" class="cls-1" cx="176.38" cy="188.36" r="20.55"/><rect class="cls-1" y="167.8" width="135.9" height="40.99" rx="20.5" ry="20.5"/></svg>